<svg xmlns="http://www.w3.org/2000/svg" viewBox="0 0 17.718 18">
  <g id="calendar-with-star" transform="translate(-0.977)">
    <g id="Group_3" data-name="Group 3" transform="translate(0.977)">
      <path id="Path_3" data-name="Path 3" d="M39.967,55.135l-.276,1.64a.6.6,0,0,0,.867.63l1.475-.77,1.475.77a.6.6,0,0,0,.867-.63l-.276-1.64,1.187-1.165a.6.6,0,0,0-.331-1.02l-1.645-.244-.741-1.49a.6.6,0,0,0-1.072,0l-.74,1.49-1.645.244a.6.6,0,0,0-.331,1.02Z" transform="translate(-33.174 -43.547)"/>
      <path id="Path_4" data-name="Path 4" d="M16.908,1.914H15.024V.868A.868.868,0,0,0,14.155,0h-.138a.868.868,0,0,0-.868.868V1.914H6.5V.868A.868.868,0,0,0,5.633,0H5.495a.868.868,0,0,0-.868.868V1.914H2.764A1.789,1.789,0,0,0,.977,3.7V16.213A1.79,1.79,0,0,0,2.764,18H16.908A1.79,1.79,0,0,0,18.7,16.213V3.7A1.79,1.79,0,0,0,16.908,1.914Zm-.233,14.066H3V6.24H16.675Z" transform="translate(-0.977 0)"/>
    </g>
  </g>
</svg>
