<?xml version="1.0" encoding="utf-8"?>
<!-- Generator: Adobe Illustrator 22.1.0, SVG Export Plug-In . SVG Version: 6.00 Build 0)  -->
<svg version="1.1" id="Warstwa_1" xmlns="http://www.w3.org/2000/svg" xmlns:xlink="http://www.w3.org/1999/xlink" x="0px" y="0px"
	 viewBox="0 0 201 40.6" style="enable-background:new 0 0 201 40.6;" xml:space="preserve">
<style type="text/css">
	.st0{enable-background:new    ;}
	.st1{fill:#35A7FF;}
	.st2{fill:#FFFFFF;}
</style>
<g id="logo-calendario" transform="translate(-375 -44)">
	<g class="st0">
		<path class="st1" d="M428.6,59c-1.7,0-3.2-0.6-4.4-1.8c-1.2-1.2-1.8-2.7-1.8-4.4c0-1.7,0.6-3.2,1.8-4.4c1.2-1.2,2.7-1.8,4.4-1.8
			c1.4,0,2.7,0.4,3.8,1.3c0.2,0.2,0.4,0.4,0.4,0.7c0,0.3,0,0.5-0.2,0.8s-0.4,0.4-0.7,0.4c-0.3,0-0.5,0-0.8-0.2
			c-0.8-0.6-1.6-0.9-2.6-0.9c-1.2,0-2.1,0.4-3,1.2s-1.2,1.8-1.2,3c0,1.2,0.4,2.1,1.2,3s1.8,1.2,3,1.2c1.1,0,2-0.4,2.8-1.1
			c0.2-0.2,0.5-0.3,0.7-0.3s0.5,0.1,0.7,0.3c0.2,0.2,0.3,0.5,0.3,0.7s-0.1,0.5-0.3,0.7C431.6,58.5,430.2,59,428.6,59z"/>
		<path class="st1" d="M439.5,58.9c-0.3-0.1-0.5-0.3-0.6-0.6c-0.1-0.3-0.1-0.5,0-0.8l1.1-2.7v0l3.2-7.8c0,0,0-0.1,0-0.1l0,0
			c0,0,0,0,0,0c0,0,0,0,0,0c0,0,0,0,0,0c0,0,0,0,0,0c0,0,0,0,0,0c0,0,0,0,0,0c0,0,0,0,0,0c0,0,0,0,0,0c0,0,0,0,0,0l0,0
			c0,0,0,0,0.1,0c0,0,0,0,0.1,0c0,0,0,0,0,0s0,0,0,0c0,0,0,0,0.1,0c0,0,0,0,0.1,0l0,0c0,0,0,0,0.1,0l0,0c0,0,0,0,0.1,0c0,0,0,0,0,0
			c0,0,0,0,0.1,0h0.1l0.1,0l0,0c0,0,0,0,0.1,0c0,0,0,0,0,0c0.1,0,0.1,0,0.2,0.1c0,0,0,0,0,0s0,0,0.1,0l0,0c0,0,0,0,0,0c0,0,0,0,0,0
			s0,0,0,0c0,0,0,0,0,0c0,0,0,0,0,0l0,0c0,0,0,0,0,0s0,0,0,0s0,0,0,0c0,0,0,0.1,0,0.1l3.2,7.8v0l1.1,2.7c0.1,0.3,0.1,0.5,0,0.8
			c-0.1,0.3-0.3,0.5-0.6,0.6c-0.1,0.1-0.3,0.1-0.4,0.1c-0.5,0-0.8-0.2-1-0.6l-0.8-2h-5.1l-0.8,2c-0.2,0.4-0.5,0.6-1,0.6
			c-0.1,0-0.2,0-0.2,0S439.7,59,439.5,58.9z M446,54.3l-1.7-4.1l-1.7,4.1H446z"/>
		<path class="st1" d="M457.1,46.4c0.3,0,0.5,0.1,0.7,0.3c0.2,0.2,0.3,0.4,0.3,0.7v9.5h4.6c0.3,0,0.5,0.1,0.7,0.3
			c0.2,0.2,0.3,0.4,0.3,0.7s-0.1,0.5-0.3,0.7c-0.2,0.2-0.5,0.3-0.7,0.3h-5.7c-0.3,0-0.5-0.1-0.7-0.3c-0.2-0.2-0.3-0.4-0.3-0.7V47.4
			c0-0.3,0.1-0.5,0.3-0.7C456.6,46.5,456.9,46.4,457.1,46.4z"/>
		<path class="st1" d="M477.5,56.9c0.3,0,0.5,0.1,0.7,0.3c0.2,0.2,0.3,0.5,0.3,0.7s-0.1,0.5-0.3,0.7c-0.2,0.2-0.4,0.3-0.7,0.3h-6.4
			c-0.3,0-0.5-0.1-0.7-0.3c-0.2-0.2-0.3-0.4-0.3-0.7V47.4c0-0.3,0.1-0.5,0.3-0.7c0.2-0.2,0.4-0.3,0.7-0.3h0l6.4,0
			c0.3,0,0.5,0.1,0.7,0.3c0.2,0.2,0.3,0.5,0.3,0.7s-0.1,0.5-0.3,0.7c-0.2,0.2-0.4,0.3-0.7,0.3h0l-5.3,0v3.2h3.8
			c0.3,0,0.5,0.1,0.7,0.3c0.2,0.2,0.3,0.5,0.3,0.7s-0.1,0.5-0.3,0.7c-0.2,0.2-0.5,0.3-0.7,0.3h-3.8v3.2H477.5z"/>
		<path class="st1" d="M493.7,58.6L493.7,58.6L493.7,58.6l-6.3-8.1V58c0,0.3-0.1,0.5-0.3,0.7c-0.2,0.2-0.4,0.3-0.7,0.3
			s-0.5-0.1-0.7-0.3c-0.2-0.2-0.3-0.4-0.3-0.7V47.4c0-0.2,0.1-0.4,0.2-0.6c0.1-0.2,0.3-0.3,0.5-0.4c0.2-0.1,0.4-0.1,0.6,0
			c0.2,0.1,0.4,0.2,0.5,0.4l6.3,8.1v-7.5c0-0.3,0.1-0.5,0.3-0.7c0.2-0.2,0.5-0.3,0.7-0.3s0.5,0.1,0.7,0.3c0.2,0.2,0.3,0.4,0.3,0.7
			V58c0,0,0,0,0,0.1c0,0,0,0,0,0c0,0,0,0,0,0.1c0,0,0,0,0,0.1l0,0c0,0,0,0,0,0.1c0,0,0,0,0,0c0,0,0,0,0,0.1l0,0l0,0c0,0,0,0,0,0.1
			l0,0c0,0,0,0,0,0.1l0,0c0,0,0,0,0,0c0,0,0,0,0,0c0,0,0,0,0,0c0,0,0,0,0,0c0,0,0,0,0,0l0,0c0,0-0.1,0.1-0.1,0.1h0
			c0,0-0.1,0-0.1,0.1c0,0,0,0,0,0c0,0-0.1,0-0.1,0l0,0c-0.1,0-0.1,0-0.1,0c0,0-0.1,0-0.1,0c0,0,0,0,0,0c0,0-0.1,0-0.1,0c0,0,0,0,0,0
			c0,0-0.1,0-0.1,0c0,0,0,0,0,0c0,0-0.1,0-0.1,0c0,0,0,0,0,0c0,0,0,0-0.1,0c0,0,0,0,0,0c0,0,0,0-0.1,0c0,0,0,0,0,0
			C493.8,58.7,493.8,58.7,493.7,58.6L493.7,58.6L493.7,58.6C493.7,58.7,493.7,58.6,493.7,58.6C493.7,58.6,493.7,58.6,493.7,58.6z"/>
		<path class="st1" d="M504.3,59c-0.3,0-0.5-0.1-0.7-0.3c-0.2-0.2-0.3-0.5-0.3-0.7V47.4c0-0.3,0.1-0.5,0.3-0.7
			c0.2-0.2,0.4-0.3,0.7-0.3h2.7c1.7,0,3.2,0.6,4.4,1.8c1.2,1.2,1.8,2.7,1.8,4.4c0,1.7-0.6,3.2-1.8,4.4c-1.2,1.2-2.7,1.8-4.4,1.8
			L504.3,59L504.3,59z M505.3,56.9l1.6,0c1.2,0,2.2-0.4,3-1.2s1.2-1.8,1.2-3c0-1.2-0.4-2.1-1.2-3c-0.8-0.8-1.8-1.2-3-1.2h-1.6V56.9z
			"/>
		<path class="st1" d="M520.1,58.9c-0.3-0.1-0.5-0.3-0.6-0.6c-0.1-0.3-0.1-0.5,0-0.8l1.1-2.7v0l3.2-7.8c0,0,0-0.1,0-0.1l0,0
			c0,0,0,0,0,0c0,0,0,0,0,0c0,0,0,0,0,0c0,0,0,0,0,0c0,0,0,0,0,0c0,0,0,0,0,0c0,0,0,0,0,0c0,0,0,0,0,0c0,0,0,0,0,0l0,0
			c0,0,0,0,0.1,0c0,0,0,0,0.1,0c0,0,0,0,0,0s0,0,0,0c0,0,0,0,0.1,0c0,0,0,0,0.1,0l0,0c0,0,0,0,0.1,0l0,0c0,0,0,0,0.1,0c0,0,0,0,0,0
			c0,0,0,0,0.1,0h0.1l0.1,0l0,0c0,0,0,0,0.1,0c0,0,0,0,0,0c0.1,0,0.1,0,0.2,0.1c0,0,0,0,0,0s0,0,0.1,0l0,0c0,0,0,0,0,0c0,0,0,0,0,0
			s0,0,0,0c0,0,0,0,0,0c0,0,0,0,0,0l0,0c0,0,0,0,0,0s0,0,0,0s0,0,0,0c0,0,0,0.1,0,0.1l3.2,7.8v0l1.1,2.7c0.1,0.3,0.1,0.5,0,0.8
			c-0.1,0.3-0.3,0.5-0.6,0.6c-0.1,0.1-0.3,0.1-0.4,0.1c-0.5,0-0.8-0.2-1-0.6l-0.8-2h-5.1l-0.8,2c-0.2,0.4-0.5,0.6-1,0.6
			c-0.1,0-0.2,0-0.2,0S520.2,59,520.1,58.9z M526.5,54.3l-1.7-4.1l-1.7,4.1H526.5z"/>
		<path class="st1" d="M545.2,50c0,0.8-0.2,1.5-0.7,2.1c-0.5,0.6-1.1,1.1-1.8,1.3l2,4c0.1,0.3,0.1,0.5,0,0.8
			c-0.1,0.3-0.3,0.5-0.5,0.6c-0.1,0.1-0.3,0.1-0.5,0.1c-0.4,0-0.7-0.2-0.9-0.6l-2.3-4.7h-1.8v4.2c0,0.3-0.1,0.5-0.3,0.7
			c-0.2,0.2-0.4,0.3-0.7,0.3c-0.3,0-0.5-0.1-0.7-0.3c-0.2-0.2-0.3-0.4-0.3-0.7V47.4c0-0.3,0.1-0.5,0.3-0.7c0.2-0.2,0.4-0.3,0.7-0.3
			h3.6c1.1,0,2,0.4,2.8,1.1C544.8,48.2,545.2,49,545.2,50z M541.4,51.6c0.5,0,0.9-0.2,1.3-0.5c0.3-0.3,0.5-0.7,0.5-1.1
			c0-0.4-0.2-0.8-0.5-1.1s-0.8-0.5-1.3-0.5h-2.6v3.2H541.4z"/>
		<path class="st1" d="M553.2,59c-0.3,0-0.5-0.1-0.7-0.3c-0.2-0.2-0.3-0.4-0.3-0.7V47.5c0-0.3,0.1-0.5,0.3-0.7
			c0.2-0.2,0.4-0.3,0.7-0.3s0.5,0.1,0.7,0.3c0.2,0.2,0.3,0.4,0.3,0.7V58c0,0.3-0.1,0.5-0.3,0.7C553.7,58.9,553.5,59,553.2,59z"/>
		<path class="st1" d="M567.5,59c-1.7,0-3.2-0.6-4.5-1.9c-1.2-1.2-1.9-2.7-1.9-4.5s0.6-3.2,1.9-4.5c1.2-1.2,2.7-1.8,4.5-1.8
			s3.2,0.6,4.5,1.8c1.2,1.2,1.8,2.7,1.8,4.5s-0.6,3.2-1.8,4.5C570.7,58.4,569.3,59,567.5,59z M567.5,48.5c-1.2,0-2.2,0.4-3,1.2
			c-0.8,0.8-1.2,1.8-1.2,3s0.4,2.2,1.2,3c0.8,0.8,1.8,1.2,3,1.2s2.2-0.4,3-1.2c0.8-0.8,1.2-1.8,1.2-3s-0.4-2.2-1.2-3
			C569.7,48.9,568.7,48.5,567.5,48.5z"/>
	</g>
	<g class="st0">
		<path class="st2" d="M428.3,80c-1.7,0-3.2-0.6-4.5-1.9c-1.2-1.2-1.9-2.7-1.9-4.5c0-1.7,0.6-3.2,1.9-4.5c1.2-1.2,2.7-1.9,4.5-1.9
			c1.4,0,2.7,0.4,3.8,1.3c0.1,0.1,0.2,0.2,0.2,0.4s0,0.3-0.1,0.4c-0.1,0.1-0.2,0.2-0.4,0.2c-0.1,0-0.3,0-0.4-0.1
			c-0.9-0.7-2-1.1-3.2-1.1c-1.4,0-2.7,0.5-3.7,1.5s-1.5,2.3-1.5,3.7c0,1.4,0.5,2.7,1.5,3.7s2.3,1.5,3.7,1.5c1.4,0,2.5-0.5,3.5-1.4
			c0.1-0.1,0.2-0.1,0.4-0.1s0.3,0.1,0.4,0.2c0.1,0.1,0.1,0.2,0.1,0.4s-0.1,0.3-0.2,0.4C431.4,79.5,430,80,428.3,80z"/>
		<path class="st2" d="M439.8,67.4c1,0,1.9,0.3,2.6,1c0.7,0.7,1.1,1.5,1.1,2.4c0,0.8-0.3,1.6-0.9,2.2c-0.6,0.6-1.3,1-2.2,1.1
			l2.5,5.1c0.1,0.1,0.1,0.3,0,0.4s-0.1,0.2-0.3,0.3c-0.1,0-0.1,0.1-0.2,0.1c-0.2,0-0.4-0.1-0.5-0.3l-2.7-5.5h-2.9v5.2
			c0,0.1-0.1,0.3-0.2,0.4c-0.1,0.1-0.2,0.1-0.4,0.1c-0.1,0-0.3,0-0.4-0.1c-0.1-0.1-0.1-0.2-0.1-0.4V67.9c0-0.1,0-0.3,0.1-0.4
			c0.1-0.1,0.2-0.1,0.4-0.1H439.8z M442.4,70.8c0-0.7-0.3-1.2-0.8-1.7c-0.5-0.5-1.1-0.7-1.9-0.7h-3.5v4.7h3.5c0.7,0,1.3-0.2,1.8-0.7
			C442.2,72,442.4,71.4,442.4,70.8z"/>
		<path class="st2" d="M447.4,79.5c0,0.1-0.1,0.3-0.2,0.4c-0.1,0.1-0.2,0.2-0.4,0.2s-0.3-0.1-0.4-0.2c-0.1-0.1-0.2-0.2-0.2-0.4V68
			c0-0.1,0.1-0.3,0.2-0.4c0.1-0.1,0.2-0.2,0.4-0.2s0.3,0.1,0.4,0.2c0.1,0.1,0.2,0.2,0.2,0.4V79.5z"/>
		<path class="st2" d="M455.5,67.4c1,0,1.9,0.3,2.6,1c0.7,0.7,1.1,1.5,1.1,2.4c0,0.9-0.3,1.7-1,2.4c-0.7,0.7-1.5,1-2.5,1.1
			c0,0-0.1,0-0.1,0h-0.1c0,0,0,0,0,0c0,0,0,0,0,0H452v5.2c0,0.1-0.1,0.3-0.2,0.4c-0.1,0.1-0.2,0.2-0.4,0.2s-0.3-0.1-0.4-0.2
			c-0.1-0.1-0.2-0.2-0.2-0.4V67.9c0-0.1,0.1-0.3,0.2-0.4c0.1-0.1,0.2-0.2,0.4-0.2H455.5z M455.5,73.2c0.7,0,1.3-0.3,1.8-0.7
			c0.5-0.5,0.8-1,0.8-1.7c0-0.7-0.3-1.2-0.8-1.7s-1.1-0.7-1.9-0.7H452v4.7H455.5z"/>
		<path class="st2" d="M464.6,68.4h-3.5c-0.1,0-0.3,0-0.4-0.1c-0.1-0.1-0.1-0.2-0.1-0.4s0-0.3,0.1-0.4c0.1-0.1,0.2-0.2,0.4-0.2h8
			c0.1,0,0.3,0.1,0.4,0.2c0.1,0.1,0.2,0.2,0.2,0.4s-0.1,0.3-0.2,0.4c-0.1,0.1-0.2,0.1-0.4,0.1h-3.5v11c0,0.1,0,0.3-0.1,0.4
			c-0.1,0.1-0.2,0.1-0.4,0.1c-0.1,0-0.3,0-0.4-0.1c-0.1-0.1-0.1-0.2-0.1-0.4V68.4z"/>
		<path class="st2" d="M477,80c-1.7,0-3.2-0.6-4.5-1.8s-1.8-2.7-1.8-4.5s0.6-3.2,1.8-4.5s2.7-1.8,4.5-1.8s3.2,0.6,4.5,1.8
			s1.8,2.7,1.8,4.5s-0.6,3.2-1.8,4.5S478.8,80,477,80z M477,68.4c-1.4,0-2.7,0.5-3.7,1.5c-1,1-1.5,2.3-1.5,3.7s0.5,2.7,1.5,3.7
			s2.3,1.5,3.7,1.5s2.7-0.5,3.7-1.5c1-1,1.5-2.3,1.5-3.7s-0.5-2.7-1.5-3.7C479.7,69,478.5,68.4,477,68.4z"/>
		<path class="st2" d="M487.4,79.5c0,0.1,0,0.3-0.1,0.4c-0.1,0.1-0.2,0.1-0.4,0.1c-0.1,0-0.3,0-0.4-0.1c-0.1-0.1-0.1-0.2-0.1-0.4V68
			c0-0.3,0.1-0.4,0.4-0.5c0.3-0.1,0.4,0,0.6,0.2l5.2,8.7l5.2-8.7c0.1-0.2,0.3-0.3,0.6-0.2c0.3,0.1,0.4,0.2,0.4,0.5v11.5
			c0,0.1-0.1,0.3-0.2,0.4c-0.1,0.1-0.2,0.1-0.4,0.1c-0.1,0-0.3,0-0.4-0.1c-0.1-0.1-0.1-0.2-0.1-0.4v-9.6l-4.7,7.8l0,0v0c0,0,0,0,0,0
			c0,0,0,0,0,0c0,0,0,0,0,0c0,0,0,0,0,0c0,0,0,0,0,0c0,0,0,0,0,0c0,0,0,0-0.1,0c0,0,0,0,0,0s0,0-0.1,0c0,0,0,0,0,0c0,0,0,0-0.1,0
			s0,0-0.1,0c0,0,0,0,0,0c0,0,0,0-0.1,0s0,0,0,0c0,0,0,0-0.1,0c0,0,0,0,0,0c0,0,0,0,0,0c0,0,0,0,0,0c0,0,0,0,0,0c0,0,0,0,0,0
			s0,0,0,0c0,0,0,0,0,0v0l0,0l-4.7-7.8V79.5z"/>
		<path class="st2" d="M507.8,80c-1.7,0-3.2-0.6-4.5-1.8s-1.8-2.7-1.8-4.5s0.6-3.2,1.8-4.5s2.7-1.8,4.5-1.8s3.2,0.6,4.5,1.8
			s1.8,2.7,1.8,4.5s-0.6,3.2-1.8,4.5S509.5,80,507.8,80z M507.8,68.4c-1.4,0-2.7,0.5-3.7,1.5c-1,1-1.5,2.3-1.5,3.7s0.5,2.7,1.5,3.7
			s2.3,1.5,3.7,1.5s2.7-0.5,3.7-1.5c1-1,1.5-2.3,1.5-3.7s-0.5-2.7-1.5-3.7C510.5,69,509.2,68.4,507.8,68.4z"/>
		<path class="st2" d="M526.2,79.8L526.2,79.8L526.2,79.8l-8.1-10.4v10c0,0.1-0.1,0.3-0.2,0.4c-0.1,0.1-0.2,0.2-0.4,0.2
			s-0.3-0.1-0.4-0.2c-0.1-0.1-0.2-0.2-0.2-0.4V67.9c0-0.3,0.1-0.4,0.4-0.5c0.2-0.1,0.4,0,0.6,0.2l8.1,10.4v-10c0-0.1,0-0.3,0.1-0.4
			c0.1-0.1,0.2-0.2,0.4-0.2c0.1,0,0.3,0.1,0.4,0.2c0.1,0.1,0.1,0.2,0.1,0.4v11.6c0,0,0,0,0,0c0,0,0,0,0,0.1c0,0,0,0,0,0
			c0,0,0,0,0,0.1s0,0,0,0s0,0,0,0c0,0,0,0,0,0s0,0,0,0c0,0,0,0,0,0c0,0,0,0,0,0c0,0,0,0,0,0c0,0,0,0,0,0c0,0,0,0-0.1,0c0,0,0,0,0,0
			c0,0,0,0-0.1,0c0,0,0,0,0,0c0,0-0.1,0-0.1,0c0,0-0.1,0-0.1,0l0,0c0,0-0.1,0-0.1,0c0,0,0,0,0,0C526.3,79.9,526.3,79.9,526.2,79.8
			C526.2,79.9,526.2,79.9,526.2,79.8C526.2,79.9,526.2,79.8,526.2,79.8C526.2,79.8,526.2,79.8,526.2,79.8z"/>
		<path class="st2" d="M530.9,80c-0.1,0-0.3-0.1-0.4-0.2c-0.1-0.1-0.2-0.2-0.2-0.4V67.9c0-0.1,0.1-0.3,0.2-0.4
			c0.1-0.1,0.2-0.2,0.4-0.2l7,0c0.1,0,0.3,0.1,0.4,0.2c0.1,0.1,0.2,0.2,0.2,0.4c0,0.1-0.1,0.3-0.2,0.4c-0.1,0.1-0.2,0.1-0.4,0.1
			l-6.5,0v4.7h4.8c0.1,0,0.3,0.1,0.4,0.2c0.1,0.1,0.2,0.2,0.2,0.4s-0.1,0.3-0.2,0.4c-0.1,0.1-0.2,0.2-0.4,0.2h-4.8v4.7h6.5
			c0.1,0,0.3,0.1,0.4,0.2c0.1,0.1,0.2,0.2,0.2,0.4s-0.1,0.3-0.2,0.4c-0.1,0.1-0.2,0.2-0.4,0.2H530.9z"/>
		<path class="st2" d="M541.6,80c-0.1,0-0.3,0-0.4-0.1c-0.1-0.1-0.2-0.2-0.2-0.4V67.9c0-0.1,0.1-0.3,0.2-0.4
			c0.1-0.1,0.2-0.2,0.4-0.2h2.9c1.7,0,3.2,0.6,4.4,1.8s1.8,2.7,1.8,4.4s-0.6,3.2-1.8,4.4s-2.7,1.8-4.4,1.8L541.6,80L541.6,80z
			 M542.1,78.9l2.4,0c1.4,0,2.7-0.5,3.7-1.5c1-1,1.5-2.3,1.5-3.7s-0.5-2.7-1.5-3.7c-1-1-2.3-1.5-3.7-1.5h-2.4V78.9z"/>
		<path class="st2" d="M553.4,80c-0.1-0.1-0.2-0.1-0.3-0.3c-0.1-0.1-0.1-0.3,0-0.4l1.2-2.9v0l3.6-8.6c0,0,0-0.1,0-0.1l0,0
			c0,0,0,0,0,0s0,0,0,0c0,0,0,0,0,0c0.1,0,0.1-0.1,0.2-0.1h0c0,0,0.1,0,0.1,0s0,0,0.1,0c0,0,0,0,0,0c0.1,0,0.1,0,0.2,0.1l0,0
			c0,0,0,0,0,0c0,0,0,0,0,0c0,0,0,0,0,0c0,0,0,0.1,0,0.1l3.6,8.6v0l1.2,2.9c0.1,0.1,0.1,0.3,0,0.4c-0.1,0.1-0.1,0.2-0.3,0.3
			c-0.1,0-0.1,0-0.2,0c-0.2,0-0.4-0.1-0.5-0.3l-1.1-2.6h-6.4l-1.1,2.6c-0.1,0.2-0.2,0.3-0.5,0.3C553.6,80,553.5,80,553.4,80
			C553.5,80,553.5,80,553.4,80z M561.2,76l-2.8-6.7l-2.8,6.7H561.2z"/>
		<path class="st2" d="M569.5,74.2c-1.4,0-2.5-0.4-3.2-1.2c-0.6-0.6-0.8-1.3-0.8-2.1c0-1,0.4-1.8,1.2-2.5c0.8-0.7,1.6-1,2.7-1
			c0.9,0,1.8,0.2,2.5,0.6c0.9,0.5,1.4,1.1,1.7,2c0,0.1,0,0.3-0.1,0.4c-0.1,0.1-0.2,0.2-0.3,0.2c-0.1,0-0.3,0-0.4-0.1
			c-0.1-0.1-0.2-0.2-0.2-0.3c-0.2-0.6-0.6-1.1-1.2-1.4c-0.6-0.3-1.2-0.4-1.9-0.4c-0.8,0-1.4,0.2-2,0.7s-0.8,1.1-0.9,1.8
			c0,0.5,0.2,1,0.5,1.3c0.5,0.5,1.3,0.8,2.4,0.8c0.1,0,0.3,0.1,0.4,0.2c0.1,0.1,0.1,0.2,0.1,0.4c0,0.1-0.1,0.3-0.2,0.4
			C569.8,74.2,569.7,74.2,569.5,74.2L569.5,74.2z M567.2,79.4c-0.9-0.5-1.4-1.1-1.7-2c0-0.1,0-0.3,0.1-0.4c0.1-0.1,0.2-0.2,0.3-0.2
			c0.1,0,0.3,0,0.4,0.1c0.1,0.1,0.2,0.2,0.2,0.3c0.2,0.6,0.6,1.1,1.2,1.4c0.6,0.3,1.2,0.4,1.9,0.4c0.8,0,1.4-0.2,2-0.7
			s0.8-1.1,0.9-1.8c0-0.5-0.2-1-0.5-1.4c-0.5-0.5-1.3-0.8-2.4-0.8c-0.1,0-0.3-0.1-0.4-0.2s-0.1-0.2-0.1-0.4c0-0.1,0.1-0.3,0.2-0.4
			c0.1-0.1,0.2-0.1,0.4-0.1c1.4,0,2.5,0.4,3.2,1.2c0.6,0.6,0.8,1.3,0.8,2.1c0,1-0.4,1.8-1.2,2.5c-0.8,0.7-1.6,1-2.7,1
			C568.8,80,567.9,79.8,567.2,79.4z"/>
	</g>
	<g id="Group_17" transform="translate(375 44)">
		<g id="Group_15" transform="translate(20.098 22.46)">
			<path id="Path_22" class="st2" d="M0,0L0,0C0,0,0,0,0,0z"/>
			<path id="Path_23" class="st2" d="M0.8,0L0.8,0C0.8,0,0.8,0,0.8,0z"/>
			<path id="Path_24" class="st2" d="M0.8,0C0.8,0,0.8,0,0.8,0C0.8,0,0.8,0,0.8,0z"/>
		</g>
		<path id="Path_25" class="st2" d="M17.3,29.4c0-2,0.5-4,1.4-5.7c-3.5-0.5-6.6-2.5-8.6-5.5c-6.2,0.7-10.7,6.2-10,12.4
			s6.2,10.7,12.4,10c2.8-0.3,5.4-1.6,7.3-3.8C18.1,34.6,17.2,32,17.3,29.4z M11.2,22.8l4,6.7l-4,2.4l-2.8-1.7l-1.2-0.7L11.2,22.8z
			 M11.2,35.9l-4-5.7l4,2.4l4-2.4L11.2,35.9z"/>
		<path id="Path_26" class="st2" d="M20.1,22.5L20.1,22.5C20.1,22.5,20.1,22.5,20.1,22.5z"/>
		<path id="Path_27" class="st2" d="M20.9,22.5L20.9,22.5C20.9,22.5,20.9,22.5,20.9,22.5z"/>
		<path id="Path_28" class="st2" d="M20.1,22.5L20.1,22.5C20.1,22.5,20.1,22.5,20.1,22.5C20.1,22.5,20.1,22.5,20.1,22.5z"/>
		<path id="Path_29" class="st2" d="M31,18.2c-2,3-5.1,4.9-8.6,5.5l-0.7,0.1c-0.2,0-0.5,0-0.7,0.1h-1c-2.1,3.7-2,8.4,0.5,11.9
			c0.1,0.2,0.3,0.4,0.4,0.6c0.1,0.2,0.3,0.4,0.4,0.5c4.1,4.7,11.2,5.1,15.9,1c2.4-2.1,3.8-5.2,3.8-8.5C41,23.6,36.7,18.8,31,18.2z
			 M36.8,30.9c0,0.4-0.2,0.7-0.5,0.9l-6.2,4c-0.1,0-0.1,0.1-0.2,0.1l0,0c-0.1,0-0.2,0-0.2-0.1l-6.1-3.9L23,31.6v0l0.3-0.4h0l0.3,0.2
			l6.2,4l0,0l6.2-4c0.1-0.1,0.2-0.3,0.2-0.4v-1l0,0l-6.2,4c-0.1,0.1-0.3,0.1-0.5,0l-5.8-3.7l0,0l-0.5-0.3c0,0-0.1-0.1-0.1-0.1
			c-0.2-0.2-0.4-0.5-0.4-0.8v-1.4c0-0.1,0-0.2,0.1-0.3h0l0.1,0l0,0l0.1,0l0.5-0.4l6.2-4l0,0c0.1-0.1,0.3-0.1,0.5,0l6.5,4.1
			c0.2,0.1,0.3,0.4,0.1,0.6c0,0,0,0,0,0c0,0.1-0.1,0.1-0.1,0.1l-6.6,4.1c-0.1,0.1-0.3,0.1-0.5,0l-5.9-3.7l0,0l-0.4-0.3l0,0V29
			c0,0.2,0.1,0.4,0.3,0.5l0.2,0.2l6,3.8l0,0l6.4-4.1c0.2-0.1,0.4-0.1,0.5,0c0.1,0.1,0.1,0.2,0.1,0.3L36.8,30.9z"/>
		<path id="Path_30" class="st2" d="M29.9,31.4L29.9,31.4l6.3-4l0,0l-6.2-4l0,0l-6.2,4l0,0L29.9,31.4z"/>
		<g id="Group_16" transform="translate(19.353 8.156)">
			<path id="Path_31" class="st1" d="M3.5,5.4C3.1,6.9,0.8,6.1,0,5.9l0.6-2.5C1.4,3.6,3.9,4,3.5,5.4z"/>
			<path id="Path_32" class="st1" d="M3.9,1.8C3.5,3.1,1.6,2.4,0.9,2.3L1.5,0C2.1,0.2,4.2,0.5,3.9,1.8z"/>
			<path id="Path_33" class="st2" d="M0.7,14.3L0.7,14.3C0.8,14.3,0.7,14.3,0.7,14.3z"/>
			<path id="Path_34" class="st2" d="M1.6,14.3L1.6,14.3C1.6,14.3,1.6,14.3,1.6,14.3z"/>
		</g>
		<path id="Path_35" class="st1" d="M20.5,0C14.3,0,9.3,5.1,9.3,11.3c0,2,0.5,3.9,1.5,5.6c0.1,0.2,0.3,0.4,0.4,0.6
			c0.2,0.2,0.3,0.5,0.5,0.6c1.9,2.4,4.7,4,7.7,4.3c0.3,0,0.5,0,0.7,0.1c0,0,0,0,0,0l0,0l0,0H21l0,0c0,0,0,0,0,0l0,0
			c0.2,0,0.5,0,0.7-0.1c3.1-0.3,5.8-1.9,7.7-4.3c0.2-0.2,0.3-0.4,0.5-0.6c0.1-0.2,0.3-0.4,0.4-0.6c1-1.7,1.5-3.6,1.5-5.6
			C31.8,5,26.7,0,20.5,0z M25.4,10c-0.1,0.8-0.7,1.5-1.5,1.7c1,0.4,1.5,1.5,1.1,2.5c0,0.1-0.1,0.1-0.1,0.2c-0.6,1.7-2.1,1.9-4,1.5
			l-0.5,1.9l-1.1-0.3l0.5-1.8c-0.3-0.1-0.6-0.2-0.9-0.2l-0.5,1.9L17.4,17l0.5-1.9c-0.3-0.1-0.5-0.1-0.8-0.2l-1.5-0.4l0.5-1.3
			c0,0,0.8,0.2,0.8,0.2c0.2,0.1,0.4-0.1,0.5-0.3l0.7-3c0,0,0.1,0,0.1,0c0,0-0.1,0-0.1,0l0.5-2.1c0-0.3-0.2-0.6-0.5-0.6c0,0,0,0,0,0
			l-0.8-0.2L17.6,6l1.6,0.4l0,0c0.2,0.1,0.5,0.1,0.7,0.2l0.5-1.9L21.5,5l-0.4,1.8C21.4,6.9,21.7,6.9,22,7l0.4-1.8l1.1,0.3l-0.5,1.9
			C24.6,7.8,25.7,8.6,25.4,10z"/>
	</g>
</g>
</svg>
