<svg xmlns="http://www.w3.org/2000/svg" viewBox="0 0 17.718 18">
  <g data-name="Group 3">
    <path d="M6.793 11.588l-.276 1.64a.6.6 0 0 0 .867.63l1.475-.77 1.475.77a.6.6 0 0 0 .867-.63l-.276-1.64 1.187-1.165a.6.6 0 0 0-.331-1.02l-1.645-.244-.741-1.49a.6.6 0 0 0-1.072 0l-.74 1.49-1.645.244a.6.6 0 0 0-.331 1.02z" data-name="Path 3"/>
    <path d="M15.931 1.914h-1.884V.868A.868.868 0 0 0 13.178 0h-.138a.868.868 0 0 0-.868.868v1.046H5.523V.868A.868.868 0 0 0 4.656 0h-.138a.868.868 0 0 0-.868.868v1.046H1.787A1.789 1.789 0 0 0 0 3.7v12.513A1.79 1.79 0 0 0 1.787 18h14.144a1.79 1.79 0 0 0 1.792-1.787V3.7a1.79 1.79 0 0 0-1.792-1.786zm-.233 14.066H2.023V6.24h13.675z" data-name="Path 4"/>
  </g>
</svg>
