<svg xmlns="http://www.w3.org/2000/svg" viewBox="0 0 201 40.6">
  <g transform="translate(-375 -44)">
    <g class="st0">
      <path d="M428.6 59c-1.7 0-3.2-.6-4.4-1.8-1.2-1.2-1.8-2.7-1.8-4.4 0-1.7.6-3.2 1.8-4.4 1.2-1.2 2.7-1.8 4.4-1.8 1.4 0 2.7.4 3.8 1.3.2.2.4.4.4.7 0 .3 0 .5-.2.8s-.4.4-.7.4c-.3 0-.5 0-.8-.2-.8-.6-1.6-.9-2.6-.9-1.2 0-2.1.4-3 1.2s-1.2 1.8-1.2 3 .4 2.1 1.2 3 1.8 1.2 3 1.2c1.1 0 2-.4 2.8-1.1.2-.2.5-.3.7-.3s.5.1.7.3c.2.2.3.5.3.7s-.1.5-.3.7c-1.1 1.1-2.5 1.6-4.1 1.6zM439.5 58.9c-.3-.1-.5-.3-.6-.6-.1-.3-.1-.5 0-.8l1.1-2.7 3.2-7.8v-.1H444.2c.1 0 .1 0 .2.1s0 0 .1 0v.1l3.2 7.8 1.1 2.7c.1.3.1.5 0 .8-.1.3-.3.5-.6.6-.1.1-.3.1-.4.1-.5 0-.8-.2-1-.6l-.8-2h-5.1l-.8 2c-.2.4-.5.6-1 .6h-.2s.8-.1.6-.2zm6.5-4.6l-1.7-4.1-1.7 4.1h3.4zM457.1 46.4c.3 0 .5.1.7.3.2.2.3.4.3.7v9.5h4.6c.3 0 .5.1.7.3.2.2.3.4.3.7s-.1.5-.3.7c-.2.2-.5.3-.7.3H457c-.3 0-.5-.1-.7-.3-.2-.2-.3-.4-.3-.7V47.4c0-.3.1-.5.3-.7.3-.2.6-.3.8-.3zM477.5 56.9c.3 0 .5.1.7.3.2.2.3.5.3.7s-.1.5-.3.7c-.2.2-.4.3-.7.3h-6.4c-.3 0-.5-.1-.7-.3-.2-.2-.3-.4-.3-.7V47.4c0-.3.1-.5.3-.7.2-.2.4-.3.7-.3h6.4c.3 0 .5.1.7.3.2.2.3.5.3.7s-.1.5-.3.7c-.2.2-.4.3-.7.3h-5.3v3.2h3.8c.3 0 .5.1.7.3.2.2.3.5.3.7s-.1.5-.3.7c-.2.2-.5.3-.7.3h-3.8v3.2h5.3zM493.7 58.6l-6.3-8.1V58c0 .3-.1.5-.3.7-.2.2-.4.3-.7.3s-.5-.1-.7-.3c-.2-.2-.3-.4-.3-.7V47.4c0-.2.1-.4.2-.6.1-.2.3-.3.5-.4.2-.1.4-.1.6 0 .2.1.4.2.5.4l6.3 8.1v-7.5c0-.3.1-.5.3-.7.2-.2.5-.3.7-.3s.5.1.7.3c.2.2.3.4.3.7V58.7l-.1.1s-.1 0-.1.1h-.2-.1-.1-.1-.1-.1-.1c-.7-.2-.7-.2-.8-.3 0 .1 0 0 0 0zM504.3 59c-.3 0-.5-.1-.7-.3-.2-.2-.3-.5-.3-.7V47.4c0-.3.1-.5.3-.7.2-.2.4-.3.7-.3h2.7c1.7 0 3.2.6 4.4 1.8 1.2 1.2 1.8 2.7 1.8 4.4 0 1.7-.6 3.2-1.8 4.4-1.2 1.2-2.7 1.8-4.4 1.8l-2.7.2zm1-2.1h1.6c1.2 0 2.2-.4 3-1.2s1.2-1.8 1.2-3-.4-2.1-1.2-3c-.8-.8-1.8-1.2-3-1.2h-1.6v8.4zM520.1 58.9c-.3-.1-.5-.3-.6-.6-.1-.3-.1-.5 0-.8l1.1-2.7 3.2-7.8v-.1H524.8c.1 0 .1 0 .2.1s0 0 .1 0v.1l3.2 7.8 1.1 2.7c.1.3.1.5 0 .8-.1.3-.3.5-.6.6-.1.1-.3.1-.4.1-.5 0-.8-.2-1-.6l-.8-2h-5.1l-.8 2c-.2.4-.5.6-1 .6h-.2s.7-.1.6-.2zm6.4-4.6l-1.7-4.1-1.7 4.1h3.4zM545.2 50c0 .8-.2 1.5-.7 2.1-.5.6-1.1 1.1-1.8 1.3l2 4c.1.3.1.5 0 .8-.1.3-.3.5-.5.6-.1.1-.3.1-.5.1-.4 0-.7-.2-.9-.6l-2.3-4.7h-1.8v4.2c0 .3-.1.5-.3.7-.2.2-.4.3-.7.3-.3 0-.5-.1-.7-.3-.2-.2-.3-.4-.3-.7V47.4c0-.3.1-.5.3-.7.2-.2.4-.3.7-.3h3.6c1.1 0 2 .4 2.8 1.1.7.7 1.1 1.5 1.1 2.5zm-3.8 1.6c.5 0 .9-.2 1.3-.5.3-.3.5-.7.5-1.1 0-.4-.2-.8-.5-1.1s-.8-.5-1.3-.5h-2.6v3.2h2.6zM553.2 59c-.3 0-.5-.1-.7-.3-.2-.2-.3-.4-.3-.7V47.5c0-.3.1-.5.3-.7.2-.2.4-.3.7-.3s.5.1.7.3c.2.2.3.4.3.7V58c0 .3-.1.5-.3.7-.2.2-.4.3-.7.3zM567.5 59c-1.7 0-3.2-.6-4.5-1.9-1.2-1.2-1.9-2.7-1.9-4.5s.6-3.2 1.9-4.5c1.2-1.2 2.7-1.8 4.5-1.8s3.2.6 4.5 1.8c1.2 1.2 1.8 2.7 1.8 4.5s-.6 3.2-1.8 4.5c-1.3 1.3-2.7 1.9-4.5 1.9zm0-10.5c-1.2 0-2.2.4-3 1.2-.8.8-1.2 1.8-1.2 3s.4 2.2 1.2 3c.8.8 1.8 1.2 3 1.2s2.2-.4 3-1.2c.8-.8 1.2-1.8 1.2-3s-.4-2.2-1.2-3c-.8-.8-1.8-1.2-3-1.2z" class="st1"/>
    </g>
    <g class="st0">
      <path d="M428.3 80c-1.7 0-3.2-.6-4.5-1.9-1.2-1.2-1.9-2.7-1.9-4.5 0-1.7.6-3.2 1.9-4.5 1.2-1.2 2.7-1.9 4.5-1.9 1.4 0 2.7.4 3.8 1.3.1.1.2.2.2.4s0 .3-.1.4c-.1.1-.2.2-.4.2-.1 0-.3 0-.4-.1-.9-.7-2-1.1-3.2-1.1-1.4 0-2.7.5-3.7 1.5s-1.5 2.3-1.5 3.7c0 1.4.5 2.7 1.5 3.7s2.3 1.5 3.7 1.5c1.4 0 2.5-.5 3.5-1.4.1-.1.2-.1.4-.1s.3.1.4.2c.1.1.1.2.1.4s-.1.3-.2.4c-1 1.3-2.4 1.8-4.1 1.8zM439.8 67.4c1 0 1.9.3 2.6 1 .7.7 1.1 1.5 1.1 2.4 0 .8-.3 1.6-.9 2.2-.6.6-1.3 1-2.2 1.1l2.5 5.1c.1.1.1.3 0 .4s-.1.2-.3.3c-.1 0-.1.1-.2.1-.2 0-.4-.1-.5-.3l-2.7-5.5h-2.9v5.2c0 .1-.1.3-.2.4-.1.1-.2.1-.4.1-.1 0-.3 0-.4-.1-.1-.1-.1-.2-.1-.4V67.9c0-.1 0-.3.1-.4.1-.1.2-.1.4-.1h4.1zm2.6 3.4c0-.7-.3-1.2-.8-1.7s-1.1-.7-1.9-.7h-3.5v4.7h3.5c.7 0 1.3-.2 1.8-.7.7-.4.9-1 .9-1.6zM447.4 79.5c0 .1-.1.3-.2.4-.1.1-.2.2-.4.2s-.3-.1-.4-.2c-.1-.1-.2-.2-.2-.4V68c0-.1.1-.3.2-.4.1-.1.2-.2.4-.2s.3.1.4.2c.1.1.2.2.2.4v11.5zM455.5 67.4c1 0 1.9.3 2.6 1 .7.7 1.1 1.5 1.1 2.4 0 .9-.3 1.7-1 2.4s-1.5 1-2.5 1.1H452v5.2c0 .1-.1.3-.2.4-.1.1-.2.2-.4.2s-.3-.1-.4-.2c-.1-.1-.2-.2-.2-.4V67.9c0-.1.1-.3.2-.4.1-.1.2-.2.4-.2h4.1zm0 5.8c.7 0 1.3-.3 1.8-.7.5-.5.8-1 .8-1.7s-.3-1.2-.8-1.7-1.1-.7-1.9-.7H452v4.7h3.5zM464.6 68.4h-3.5c-.1 0-.3 0-.4-.1-.1-.1-.1-.2-.1-.4s0-.3.1-.4c.1-.1.2-.2.4-.2h8c.1 0 .3.1.4.2.1.1.2.2.2.4s-.1.3-.2.4c-.1.1-.2.1-.4.1h-3.5v11c0 .1 0 .3-.1.4-.1.1-.2.1-.4.1-.1 0-.3 0-.4-.1-.1-.1-.1-.2-.1-.4v-11zM477 80c-1.7 0-3.2-.6-4.5-1.8s-1.8-2.7-1.8-4.5.6-3.2 1.8-4.5 2.7-1.8 4.5-1.8 3.2.6 4.5 1.8 1.8 2.7 1.8 4.5-.6 3.2-1.8 4.5-2.7 1.8-4.5 1.8zm0-11.6c-1.4 0-2.7.5-3.7 1.5s-1.5 2.3-1.5 3.7.5 2.7 1.5 3.7 2.3 1.5 3.7 1.5 2.7-.5 3.7-1.5 1.5-2.3 1.5-3.7-.5-2.7-1.5-3.7c-1-.9-2.2-1.5-3.7-1.5zM487.4 79.5c0 .1 0 .3-.1.4-.1.1-.2.1-.4.1-.1 0-.3 0-.4-.1-.1-.1-.1-.2-.1-.4V68c0-.3.1-.4.4-.5.3-.1.4 0 .6.2l5.2 8.7 5.2-8.7c.1-.2.3-.3.6-.2.3.1.4.2.4.5v11.5c0 .1-.1.3-.2.4-.1.1-.2.1-.4.1-.1 0-.3 0-.4-.1-.1-.1-.1-.2-.1-.4v-9.6l-4.7 7.8h-.1-.1-.2-.1c-.1 0 0 0 0 0h-.1l-4.7-7.8v9.6zM507.8 80c-1.7 0-3.2-.6-4.5-1.8s-1.8-2.7-1.8-4.5.6-3.2 1.8-4.5 2.7-1.8 4.5-1.8 3.2.6 4.5 1.8 1.8 2.7 1.8 4.5-.6 3.2-1.8 4.5-2.8 1.8-4.5 1.8zm0-11.6c-1.4 0-2.7.5-3.7 1.5s-1.5 2.3-1.5 3.7.5 2.7 1.5 3.7 2.3 1.5 3.7 1.5 2.7-.5 3.7-1.5 1.5-2.3 1.5-3.7-.5-2.7-1.5-3.7c-1-.9-2.3-1.5-3.7-1.5zM526.2 79.8l-8.1-10.4v10c0 .1-.1.3-.2.4-.1.1-.2.2-.4.2s-.3-.1-.4-.2c-.1-.1-.2-.2-.2-.4V67.9c0-.3.1-.4.4-.5.2-.1.4 0 .6.2L526 78V68c0-.1 0-.3.1-.4.1-.1.2-.2.4-.2.1 0 .3.1.4.2.1.1.1.2.1.4V79.8c0 .1 0 0 0 0h-.1-.1-.1-.1-.1c-.2.1-.2.1-.3 0 0 .1 0 .1 0 0 0 .1 0 0 0 0zM530.9 80c-.1 0-.3-.1-.4-.2-.1-.1-.2-.2-.2-.4V67.9c0-.1.1-.3.2-.4.1-.1.2-.2.4-.2h7c.1 0 .3.1.4.2.1.1.2.2.2.4 0 .1-.1.3-.2.4-.1.1-.2.1-.4.1h-6.5v4.7h4.8c.1 0 .3.1.4.2.1.1.2.2.2.4s-.1.3-.2.4c-.1.1-.2.2-.4.2h-4.8V79h6.5c.1 0 .3.1.4.2.1.1.2.2.2.4s-.1.3-.2.4c-.1.1-.2.2-.4.2h-7zM541.6 80c-.1 0-.3 0-.4-.1-.1-.1-.2-.2-.2-.4V67.9c0-.1.1-.3.2-.4.1-.1.2-.2.4-.2h2.9c1.7 0 3.2.6 4.4 1.8s1.8 2.7 1.8 4.4-.6 3.2-1.8 4.4-2.7 1.8-4.4 1.8l-2.9.3zm.5-1.1h2.4c1.4 0 2.7-.5 3.7-1.5s1.5-2.3 1.5-3.7-.5-2.7-1.5-3.7-2.3-1.5-3.7-1.5h-2.4v10.4zM553.4 80c-.1-.1-.2-.1-.3-.3-.1-.1-.1-.3 0-.4l1.2-2.9 3.6-8.6v-.1c.1 0 .1-.1.2-.1h.2c.1 0 .1 0 .2.1v.1l3.6 8.6 1.2 2.9c.1.1.1.3 0 .4-.1.1-.1.2-.3.3h-.2c-.2 0-.4-.1-.5-.3l-1.1-2.6h-6.4l-1.1 2.6c-.1.2-.2.3-.5.3h.2c.1 0 .1 0 0 0zm7.8-4l-2.8-6.7-2.8 6.7h5.6zM569.5 74.2c-1.4 0-2.5-.4-3.2-1.2-.6-.6-.8-1.3-.8-2.1 0-1 .4-1.8 1.2-2.5.8-.7 1.6-1 2.7-1 .9 0 1.8.2 2.5.6.9.5 1.4 1.1 1.7 2 0 .1 0 .3-.1.4-.1.1-.2.2-.3.2-.1 0-.3 0-.4-.1-.1-.1-.2-.2-.2-.3-.2-.6-.6-1.1-1.2-1.4-.6-.3-1.2-.4-1.9-.4-.8 0-1.4.2-2 .7s-.8 1.1-.9 1.8c0 .5.2 1 .5 1.3.5.5 1.3.8 2.4.8.1 0 .3.1.4.2.1.1.1.2.1.4 0 .1-.1.3-.2.4 0 .2-.1.2-.3.2zm-2.3 5.2c-.9-.5-1.4-1.1-1.7-2 0-.1 0-.3.1-.4.1-.1.2-.2.3-.2.1 0 .3 0 .4.1.1.1.2.2.2.3.2.6.6 1.1 1.2 1.4.6.3 1.2.4 1.9.4.8 0 1.4-.2 2-.7s.8-1.1.9-1.8c0-.5-.2-1-.5-1.4-.5-.5-1.3-.8-2.4-.8-.1 0-.3-.1-.4-.2s-.1-.2-.1-.4c0-.1.1-.3.2-.4.1-.1.2-.1.4-.1 1.4 0 2.5.4 3.2 1.2.6.6.8 1.3.8 2.1 0 1-.4 1.8-1.2 2.5-.8.7-1.6 1-2.7 1-1 0-1.9-.2-2.6-.6z" class="st2"/>
    </g>
    <g transform="translate(375 44)">
      <g transform="translate(20.098 22.46)">
        <path d="M0 0z" class="st2"/>
        <path d="M.8 0z" class="st2"/>
        <path d="M.8 0z" class="st2"/>
      </g>
      <path d="M17.3 29.4c0-2 .5-4 1.4-5.7-3.5-.5-6.6-2.5-8.6-5.5-6.2.7-10.7 6.2-10 12.4s6.2 10.7 12.4 10c2.8-.3 5.4-1.6 7.3-3.8-1.7-2.2-2.6-4.8-2.5-7.4zm-6.1-6.6l4 6.7-4 2.4-2.8-1.7-1.2-.7 4-6.7zm0 13.1l-4-5.7 4 2.4 4-2.4-4 5.7z" class="st2"/>
      <path d="M20.1 22.5z" class="st2"/>
      <path d="M20.9 22.5z" class="st2"/>
      <path d="M20.1 22.5z" class="st2"/>
      <path d="M31 18.2c-2 3-5.1 4.9-8.6 5.5l-.7.1c-.2 0-.5 0-.7.1h-1c-2.1 3.7-2 8.4.5 11.9.1.2.3.4.4.6.1.2.3.4.4.5 4.1 4.7 11.2 5.1 15.9 1 2.4-2.1 3.8-5.2 3.8-8.5 0-5.8-4.3-10.6-10-11.2zm5.8 12.7c0 .4-.2.7-.5.9l-6.2 4c-.1 0-.1.1-.2.1s-.2 0-.2-.1l-6.1-3.9-.6-.3.3-.4.3.2 6.2 4 6.2-4c.1-.1.2-.3.2-.4v-1L30 34c-.1.1-.3.1-.5 0l-5.8-3.7-.5-.3-.1-.1c-.2-.2-.4-.5-.4-.8v-1.4c0-.1 0-.2.1-.3h.2l.5-.4 6.2-4c.1-.1.3-.1.5 0l6.5 4.1c.2.1.3.4.1.6 0 .1-.1.1-.1.1l-6.6 4.1c-.1.1-.3.1-.5 0l-5.9-3.7-.4-.3V29c0 .2.1.4.3.5l.2.2 6 3.8 6.4-4.1c.2-.1.4-.1.5 0 .1.1.1.2.1.3v1.2z" class="st2"/>
      <path d="M29.9 31.4l6.3-4-6.2-4-6.2 4 6.1 4z" class="st2"/>
      <g transform="translate(19.353 8.156)">
        <path d="M3.5 5.4c-.4 1.5-2.7.7-3.5.5l.6-2.5c.8.2 3.3.6 2.9 2z" class="st1"/>
        <path d="M3.9 1.8c-.4 1.3-2.3.6-3 .5L1.5 0c.6.2 2.7.5 2.4 1.8z" class="st1"/>
        <path d="M.7 14.3c.1 0 0 0 0 0z" class="st2"/>
        <path d="M1.6 14.3z" class="st2"/>
      </g>
      <path d="M20.5 0C14.3 0 9.3 5.1 9.3 11.3c0 2 .5 3.9 1.5 5.6.1.2.3.4.4.6.2.2.3.5.5.6 1.9 2.4 4.7 4 7.7 4.3.3 0 .5 0 .7.1h.9c.2 0 .5 0 .7-.1 3.1-.3 5.8-1.9 7.7-4.3.2-.2.3-.4.5-.6.1-.2.3-.4.4-.6 1-1.7 1.5-3.6 1.5-5.6C31.8 5 26.7 0 20.5 0zm4.9 10c-.1.8-.7 1.5-1.5 1.7 1 .4 1.5 1.5 1.1 2.5 0 .1-.1.1-.1.2-.6 1.7-2.1 1.9-4 1.5l-.5 1.9-1.1-.3.5-1.8c-.3-.1-.6-.2-.9-.2l-.5 1.9-1-.4.5-1.9c-.3-.1-.5-.1-.8-.2l-1.5-.4.5-1.3.8.2c.2.1.4-.1.5-.3l.7-3h0l.5-2.1c0-.3-.2-.6-.5-.6l-.8-.2.3-1.2 1.6.4c.2.1.5.1.7.2l.5-1.9 1.1.3-.4 1.8c.3.1.6.1.9.2l.4-1.8 1.1.3-.5 1.9c1.6.4 2.7 1.2 2.4 2.6z" class="st1"/>
    </g>
  </g>
</svg>
